# xmcd
#
# Track frame offsets:
#	150
#	24327
#	39362
#	69157
#	107691
#	127929
#	146684
#	168309
#	173454
#	193931
#	207847
#	223448
#	244157
#	306816
#
# Disc length: 4318 seconds
#
# Revision: 1
# Processed by: cddbd v1.5.2PL0 Copyright (c) Steve Scherf et al.
# Submitted via: audiograbber 1.83.01
#
DISCID=c110dc0e
DTITLE=Πέτρος Γαιτάνος - Αίμα και ύδωρ
DYEAR=1900
DGENRE=
TTITLE0=Ελκόμενος προς το πάθος
TTITLE1=Εις το Πραιτώριον
TTITLE2=Ιδε ο βασιλεύς υμών
TTITLE3=Εις χείρας Σου παρατίθεμαι το πνεύμα Μου
TTITLE4=Και ως ετέθη το σώμα Αυτού
TTITLE5=Αίμα και ύδωρ
TTITLE6=Ινα η γραφή πληρωθεί
TTITLE7=Εθηκαν τον Ιησούν
TTITLE8=Σήμερον μαύρος ουρανός
TTITLE9=Το κατωλόι της Παναγιάς
TTITLE10=Βλέπεις εκείνο το γυμνό
TTITLE11=Επί ξύλου βλέπουσα
TTITLE12=Που πορεύει τέκνον
TTITLE13=Νενίκηκα τον κόσμον
EXTD=
EXTT0=
EXTT1=
EXTT2=
EXTT3=
EXTT4=
EXTT5=
EXTT6=
EXTT7=
EXTT8=
EXTT9=
EXTT10=
EXTT11=
EXTT12=
EXTT13=
PLAYORDER=
